<svg xmlns="http://www.w3.org/2000/svg" style="height: 0; width: 0; position: absolute;"><symbol id="icon-instagram" viewBox="0 0 24 24"><title>instagram</title><g class="nc-icon-wrapper"><path d="M11.9973 6.86903C9.15795 6.86903 6.86644 9.16058 6.86644 12C6.86644 14.8394 9.15795 17.131 11.9973 17.131C14.8367 17.131 17.1282 14.8394 17.1282 12C17.1282 9.16058 14.8367 6.86903 11.9973 6.86903ZM11.9973 15.3348C10.1611 15.3348 8.66262 13.8362 8.66262 12C8.66262 10.1638 10.1611 8.66525 11.9973 8.66525C13.8335 8.66525 15.332 10.1638 15.332 12C15.332 13.8362 13.8335 15.3348 11.9973 15.3348ZM17.3383 5.46308C16.6754 5.46308 16.14 5.99845 16.14 6.66139C16.14 7.32434 16.6754 7.8597 17.3383 7.8597C18.0013 7.8597 18.5366 7.32684 18.5366 6.66139C18.5368 6.50397 18.5059 6.34806 18.4458 6.20259C18.3856 6.05711 18.2974 5.92493 18.1861 5.81362C18.0748 5.70231 17.9426 5.61405 17.7971 5.5539C17.6516 5.49375 17.4957 5.46289 17.3383 5.46308ZM21.9989 12C21.9989 10.6191 22.0114 9.25064 21.9338 7.87221C21.8563 6.27113 21.4911 4.85017 20.3203 3.67938C19.147 2.50609 17.7286 2.14334 16.1275 2.06579C14.7466 1.98824 13.3782 2.00074 11.9998 2.00074C10.6189 2.00074 9.25051 1.98824 7.8721 2.06579C6.27105 2.14334 4.85012 2.50859 3.67935 3.67938C2.50608 4.85267 2.14334 6.27113 2.06579 7.87221C1.98824 9.25314 2.00074 10.6216 2.00074 12C2.00074 13.3784 1.98824 14.7494 2.06579 16.1278C2.14334 17.7289 2.50858 19.1498 3.67935 20.3206C4.85262 21.4939 6.27105 21.8567 7.8721 21.9342C9.25301 22.0118 10.6214 21.9993 11.9998 21.9993C13.3807 21.9993 14.7491 22.0118 16.1275 21.9342C17.7286 21.8567 19.1495 21.4914 20.3203 20.3206C21.4936 19.1473 21.8563 17.7289 21.9338 16.1278C22.0139 14.7494 21.9989 13.3809 21.9989 12ZM19.7974 17.899C19.6148 18.3543 19.3947 18.6945 19.0419 19.0448C18.6892 19.3975 18.3515 19.6176 17.8962 19.8003C16.5803 20.3231 13.4558 20.2055 11.9973 20.2055C10.5389 20.2055 7.4118 20.3231 6.09593 19.8028C5.64064 19.6201 5.30041 19.4 4.95018 19.0473C4.59745 18.6945 4.37731 18.3568 4.19469 17.9015C3.67434 16.5831 3.79192 13.4585 3.79192 12C3.79192 10.5415 3.67434 7.4144 4.19469 6.09851C4.37731 5.6432 4.59745 5.30298 4.95018 4.95274C5.30291 4.6025 5.64064 4.37985 6.09593 4.19723C7.4118 3.67688 10.5389 3.79446 11.9973 3.79446C13.4558 3.79446 16.5828 3.67688 17.8987 4.19723C18.354 4.37985 18.6942 4.6 19.0444 4.95274C19.3972 5.30548 19.6173 5.6432 19.7999 6.09851C20.3203 7.4144 20.2027 10.5415 20.2027 12C20.2027 13.4585 20.3203 16.5831 19.7974 17.899Z" fill="currentColor" stroke="none"></path></g></symbol><symbol id="icon-mastercard" viewBox="0 0 31 32"><title>mastercard</title><g fill="none" class="nc-icon-wrapper" stroke="none"><g clip-path="url(#1745132242768-6846344_clip0_1739_3158)"><path d="M15.017 22.85C13.3637 24.2432 11.27 25.005 9.108 25C4.078 25 0 20.97 0 16C0 11.03 4.078 7.00002 9.108 7.00002C11.363 7.00002 13.426 7.81002 15.017 9.15002C16.67 7.75705 18.7633 6.99526 20.925 7.00002C25.955 7.00002 30.033 11.03 30.033 16C30.033 20.97 25.955 25 20.925 25C18.7633 25.0048 16.67 24.243 15.017 22.85Z" fill="#ED0006"></path><path d="M15.017 22.85C16.0186 22.0115 16.8242 20.9636 17.377 19.7801C17.9299 18.5966 18.2166 17.3063 18.217 16C18.217 13.257 16.975 10.8 15.017 9.15002C16.67 7.75705 18.7633 6.99526 20.925 7.00002C25.955 7.00002 30.033 11.03 30.033 16C30.033 20.97 25.955 25 20.925 25C18.7633 25.0048 16.67 24.243 15.017 22.85Z" fill="#F9A000"></path><path d="M15.017 22.85C16.975 21.2 18.217 18.743 18.217 16C18.217 13.257 16.975 10.8 15.017 9.15002C14.0154 9.98856 13.2098 11.0365 12.657 12.22C12.1041 13.4035 11.8174 14.6938 11.817 16C11.817 18.743 13.058 21.2 15.017 22.85Z" fill="#FF5E00"></path></g><defs><clipPath id="1745132242768-6846344_clip0_1739_3158"><path fill="#fff" d="M0 0H30.033V32H0z"></path></clipPath></defs></g></symbol><symbol id="icon-github" viewBox="0 0 24 24"><title>github</title><g class="nc-icon-wrapper"><path d="M12 2C10.6868 2 9.38642 2.25866 8.17317 2.7612C6.95991 3.26375 5.85752 4.00035 4.92893 4.92893C3.05357 6.8043 2 9.34784 2 12C2 16.42 4.87 20.17 8.84 21.5C9.34 21.58 9.5 21.27 9.5 21V19.31C6.73 19.91 6.14 17.97 6.14 17.97C5.68 16.81 5.03 16.5 5.03 16.5C4.12 15.88 5.1 15.9 5.1 15.9C6.1 15.97 6.63 16.93 6.63 16.93C7.5 18.45 8.97 18 9.54 17.76C9.63 17.11 9.89 16.67 10.17 16.42C7.95 16.17 5.62 15.31 5.62 11.5C5.62 10.39 6 9.5 6.65 8.79C6.55 8.54 6.2 7.5 6.75 6.15C6.75 6.15 7.59 5.88 9.5 7.17C10.29 6.95 11.15 6.84 12 6.84C12.85 6.84 13.71 6.95 14.5 7.17C16.41 5.88 17.25 6.15 17.25 6.15C17.8 7.5 17.45 8.54 17.35 8.79C18 9.5 18.38 10.39 18.38 11.5C18.38 15.32 16.04 16.16 13.81 16.41C14.17 16.72 14.5 17.33 14.5 18.26V21C14.5 21.27 14.66 21.59 15.17 21.5C19.14 20.16 22 16.42 22 12C22 10.6868 21.7413 9.38642 21.2388 8.17317C20.7362 6.95991 19.9997 5.85752 19.0711 4.92893C18.1425 4.00035 17.0401 3.26375 15.8268 2.7612C14.6136 2.25866 13.3132 2 12 2Z" fill="currentColor" stroke="none"></path></g></symbol><symbol id="icon-visa" viewBox="0 0 43 32"><title>visa</title><g fill="none" class="nc-icon-wrapper" stroke="none"><g clip-path="url(#1745132242769-2760974_clip0_1739_3159)"><path d="M27.515 9.00008C28.5598 8.99548 29.5959 9.19135 30.567 9.57708L30.104 12.5031L29.796 12.3601C29.003 11.9927 28.1355 11.8147 27.262 11.8401C25.919 11.8401 25.316 12.4311 25.302 13.0081C25.302 13.6431 26.032 14.0611 27.222 14.6811C29.182 15.6471 30.09 16.8291 30.077 18.3711C30.049 21.1841 27.725 23.0001 24.155 23.0001C22.629 22.9851 21.159 22.6531 20.361 22.2791L20.837 19.2361L21.285 19.4531C22.391 19.9581 23.119 20.1731 24.477 20.1731C25.457 20.1731 26.507 19.7551 26.52 18.8481C26.52 18.2561 26.073 17.8241 24.757 17.1601C23.469 16.5111 21.747 15.4301 21.775 13.4841C21.789 10.8451 24.155 9.00008 27.515 9.00008ZM14.831 22.7981H18.233L20.361 9.24608H16.959L14.831 22.7981Z" fill="#00579F"></path><path fill-rule="evenodd" clip-rule="evenodd" d="M39.288 9.24608H36.657C35.845 9.24608 35.229 9.49108 34.878 10.3701L29.825 22.7981H33.395L34.109 20.7651H38.477C38.575 21.2411 38.883 22.7981 38.883 22.7981H42.033L39.288 9.24608ZM35.088 17.9961L36.448 14.2061C36.441 14.2161 36.486 14.0901 36.552 13.9011C36.65 13.6211 36.795 13.2081 36.895 12.9081L37.132 14.0751C37.132 14.0751 37.777 17.3191 37.917 17.9971H35.089L35.088 17.9961Z" fill="#00579F"></path><path d="M8.65696 18.4871L11.989 9.24608H15.587L10.239 22.7841H6.64096L3.58896 10.9321C5.74496 12.1001 7.67696 14.4501 8.29296 16.6121L8.65696 18.4871Z" fill="#00579F"></path><path d="M5.56296 9.24608H0.0889592L0.032959 9.51908C4.30296 10.6441 7.13096 13.3551 8.29296 16.6131L7.10296 10.3851C6.90696 9.51908 6.30496 9.27508 5.56296 9.24508V9.24608Z" fill="#FAA61A"></path></g><defs><clipPath id="1745132242769-2760974_clip0_1739_3159"><path fill="#fff" transform="translate(.033)" d="M0 0H42V32H0z"></path></clipPath></defs></g></symbol><symbol id="icon-star-badge" viewBox="0 0 24 24"><title>star badge</title><g class="nc-icon-wrapper"><g id="1745132242767-7070484_Star Badge" stroke="none" fill="none"><path id="1745132242767-7070484_Vector" d="M6.05174 13.2695L3 18.5764L6.29748 17.6893L7.18103 21L9.82887 16.3955M17.9483 13.2695L21 18.5764L17.7025 17.6893L16.819 21L14.1712 16.3955M18.8587 9.88992C18.8587 13.6951 15.7862 16.7799 11.9962 16.7799C8.20619 16.7799 5.13379 13.6951 5.13379 9.88992C5.13379 6.08472 8.20619 3 11.9962 3C15.7862 3 18.8587 6.08472 18.8587 9.88992ZM12.277 6.14906L13.2223 8.05825C13.2434 8.10653 13.277 8.14832 13.3194 8.17934C13.3619 8.21036 13.4119 8.2295 13.4641 8.23481L15.5635 8.55486C15.6236 8.5627 15.6801 8.58754 15.7266 8.62646C15.7731 8.66539 15.8076 8.7168 15.826 8.77467C15.8444 8.83256 15.8461 8.89452 15.8308 8.95329C15.8154 9.01208 15.7837 9.06527 15.7394 9.10664L14.1896 10.5854C14.1665 10.6297 14.1544 10.6789 14.1544 10.7289C14.1544 10.7789 14.1665 10.8281 14.1896 10.8724L14.4864 12.9692C14.499 13.0298 14.4939 13.0928 14.4716 13.1505C14.4493 13.2082 14.4108 13.2582 14.3608 13.2945C14.3108 13.3307 14.2513 13.3515 14.1897 13.3545C14.1281 13.3575 14.067 13.3425 14.0137 13.3113L12.1451 12.318C12.0968 12.2961 12.0443 12.2848 11.9912 12.2848C11.9382 12.2848 11.8857 12.2961 11.8373 12.318L9.96876 13.3113C9.9155 13.3425 9.85434 13.3575 9.79273 13.3545C9.73113 13.3515 9.6717 13.3307 9.62168 13.2945C9.57164 13.2582 9.53315 13.2082 9.51087 13.1505C9.48857 13.0928 9.48345 13.0298 9.49612 12.9692L9.84786 10.8724C9.86298 10.8237 9.86587 10.772 9.85629 10.722C9.84669 10.6719 9.82491 10.625 9.79289 10.5854L8.24307 9.0956C8.20196 9.0538 8.1731 9.00143 8.15966 8.94426C8.14623 8.88706 8.14873 8.82727 8.1669 8.77143C8.18505 8.71559 8.21818 8.66583 8.26263 8.62763C8.30709 8.58943 8.36116 8.56425 8.41893 8.55486L10.5183 8.24585C10.5706 8.24054 10.6205 8.2214 10.663 8.19038C10.7055 8.15935 10.739 8.11756 10.7602 8.06928L11.7055 6.1601C11.7307 6.10605 11.7706 6.06019 11.8205 6.0277C11.8704 5.99521 11.9283 5.97737 11.9878 5.97622C12.0473 5.97508 12.1059 5.99065 12.157 6.02121C12.2081 6.05175 12.2497 6.09604 12.277 6.14906Z" stroke="currentColor" stroke-linecap="round" stroke-linejoin="round" fill="none"></path></g></g></symbol><symbol id="icon-google" viewBox="0 0 25 24"><title>google</title><g fill="none" class="nc-icon-wrapper" stroke="none"><path fill-rule="evenodd" clip-rule="evenodd" d="M7.48111 12C7.48111 11.4804 7.56736 10.9822 7.72149 10.5149L5.02524 8.45604C4.49974 9.52291 4.20374 10.7252 4.20374 12C4.20374 13.2739 4.49949 14.4753 5.02411 15.5415L7.71886 13.4787C7.56624 13.0135 7.48111 12.5172 7.48111 12Z" fill="#FBBC05"></path><path fill-rule="evenodd" clip-rule="evenodd" d="M12.2151 7.27279C13.344 7.27279 14.3636 7.67279 15.1648 8.32729L17.4953 6.00004C16.0751 4.76366 14.2544 4.00004 12.2151 4.00004C9.04914 4.00004 6.32814 5.81054 5.02527 8.45604L7.72139 10.5149C8.34264 8.62916 10.1135 7.27279 12.2151 7.27279Z" fill="#EA4335"></path><path fill-rule="evenodd" clip-rule="evenodd" d="M12.2151 16.7273C10.1136 16.7273 8.34277 15.3709 7.72152 13.4852L5.02527 15.5437C6.32814 18.1895 9.04914 20 12.2151 20C14.1691 20 16.0348 19.3062 17.4349 18.0062L14.8756 16.0277C14.1535 16.4825 13.2441 16.7273 12.2151 16.7273Z" fill="#34A853"></path><path fill-rule="evenodd" clip-rule="evenodd" d="M19.8622 12C19.8622 11.5273 19.7893 11.0182 19.6801 10.5455H12.2151V13.6364H16.5121C16.2972 14.6903 15.7125 15.5004 14.8756 16.0277L17.4348 18.0062C18.9056 16.6412 19.8622 14.6077 19.8622 12Z" fill="#4285F4"></path></g></symbol><symbol id="icon-amex" viewBox="0 0 57 32"><title>amex</title><g class="nc-icon-wrapper"><path fill-rule="evenodd" clip-rule="evenodd" d="M10.224 10L5.03296 21.826H11.248L12.018 19.941H13.779L14.55 21.827H21.39V20.387L22 21.827H25.54L26.149 20.357V21.827H40.376L42.106 19.99L43.726 21.827L51.033 21.842L45.825 15.946L51.033 10H43.839L42.155 11.803L40.586 10H25.109L23.779 13.053L22.42 10H16.219V11.39L15.529 10H10.226H10.224ZM11.427 11.68H14.457L17.9 19.699V11.679H21.219L23.879 17.429L26.329 11.679H29.633V20.166H27.623L27.607 13.516L24.677 20.166H22.88L19.935 13.516V20.166H15.801L15.018 18.263H10.783L10.001 20.164H7.78696L11.427 11.679V11.68ZM39.64 11.68H31.47V20.16H39.513L42.106 17.35L44.605 20.16H47.217L43.42 15.945L47.217 11.679H44.718L42.138 14.458L39.64 11.679V11.68ZM12.9 13.115L11.506 16.505H14.294L12.901 13.115H12.9ZM33.487 14.985V13.435H38.585L40.809 15.912L38.486 18.404H33.487V16.712H37.944V14.986H33.487V14.985Z" fill="currentColor" stroke="none"></path></g></symbol><symbol id="icon-x" viewBox="0 0 24 24"><title>x</title><g class="nc-icon-wrapper"><g id="1745132242768-4652916_X" stroke="none" fill="none"><g id="1745132242768-4652916_close" stroke="none" fill="none"><path id="1745132242768-4652916_Vector" d="M17 7L7 17" stroke="currentColor" stroke-linecap="round" stroke-linejoin="round" fill="none"></path><path id="1745132242768-4652916_Vector_2" d="M7 7L17 17" stroke="currentColor" stroke-linecap="round" stroke-linejoin="round" fill="none"></path></g></g></g></symbol><symbol id="icon-warning" viewBox="0 0 24 24"><title>warning</title><g class="nc-icon-wrapper"><g id="1745132242768-810372_Warning" stroke="none" fill="none"><g id="1745132242768-810372_warning-triangle--frame-alert-warning-triangle-exclamation-caution" stroke="none" fill="none"><path id="1745132242768-810372_Vector" d="M13.0959 5.19349C12.9926 5.0062 12.8356 4.84902 12.6422 4.73927C12.4489 4.62952 12.2266 4.57144 12 4.57144C11.7734 4.57144 11.5511 4.62952 11.3578 4.73927C11.1644 4.84902 11.0074 5.0062 10.9041 5.19349L4.13172 17.7707C4.03727 17.9447 3.99229 18.1383 4.00108 18.3331C4.00986 18.5278 4.07211 18.7172 4.18192 18.8833C4.29172 19.0494 4.44543 19.1868 4.62845 19.2821C4.81147 19.3776 5.01772 19.428 5.22762 19.4286H18.7724C18.9823 19.428 19.1886 19.3776 19.3715 19.2821C19.5546 19.1868 19.7083 19.0494 19.8181 18.8833C19.9279 18.7172 19.9902 18.5278 19.9989 18.3331C20.0078 18.1383 19.9627 17.9447 19.8683 17.7707L13.0959 5.19349Z" stroke="currentColor" stroke-linecap="round" stroke-linejoin="round" fill="none"></path><path id="1745132242768-810372_Vector_2" d="M12 9.9592V13.3878" stroke="currentColor" stroke-linecap="round" stroke-linejoin="round" fill="none"></path><g id="1745132242768-810372_Circle" stroke="none" fill="none"><path id="1745132242768-810372_Ellipse 1111" d="M12.0001 16.6531C11.8198 16.6531 11.6736 16.5069 11.6736 16.3265C11.6736 16.1462 11.8198 16 12.0001 16" stroke="currentColor" stroke-linecap="round" stroke-linejoin="round" fill="none"></path><path id="1745132242768-810372_Ellipse 1112" d="M12.0001 16.6531C12.1805 16.6531 12.3267 16.5069 12.3267 16.3265C12.3267 16.1462 12.1805 16 12.0001 16" stroke="currentColor" stroke-linecap="round" stroke-linejoin="round" fill="none"></path></g></g></g></g></symbol><symbol id="icon-users" viewBox="0 0 24 24"><title>users</title><g class="nc-icon-wrapper"><g id="1745132242768-1999494_Users" stroke="none" fill="none"><path id="1745132242768-1999494_Vector" d="M14.7692 10.6666C16.681 10.6666 18.2308 9.17424 18.2308 7.33331C18.2308 5.49237 16.681 4 14.7692 4M18.2308 20H21V19.2771C20.9889 18.2608 20.7106 17.2638 20.191 16.3792C19.6713 15.4946 18.9274 14.7513 18.0285 14.2186C17.4475 13.8743 16.8139 13.6253 16.1538 13.4793M9.23077 10.6666C11.1425 10.6666 12.6923 9.17424 12.6923 7.33331C12.6923 5.49237 11.1425 4 9.23077 4C7.31902 4 5.76923 5.49237 5.76923 7.33331C5.76923 9.17424 7.31902 10.6666 9.23077 10.6666ZM3 19.9999H15.4615V19.2771C15.4505 18.2608 15.1722 17.2638 14.6526 16.3792C14.1329 15.4946 13.3889 14.7512 12.4901 14.2186C11.5912 13.6859 10.5668 13.3814 9.51257 13.3333C9.41858 13.329 9.32462 13.3268 9.23077 13.3266C9.13692 13.3268 9.04296 13.329 8.94897 13.3333C7.89474 13.3814 6.87035 13.6859 5.97148 14.2186C5.07263 14.7512 4.32864 15.4946 3.80899 16.3792C3.28935 17.2638 3.01102 18.2608 3 19.2771V19.9999Z" stroke="currentColor" stroke-linecap="round" stroke-linejoin="round" fill="none"></path></g></g></symbol><symbol id="icon-star" viewBox="0 0 24 24"><title>star</title><g class="nc-icon-wrapper"><g id="1745132242767-8461619_Star" stroke="none" fill="none"><path id="1745132242767-8461619_Vector" d="M12 4.5L14.472 9.43691L20 10.2334L16 14.0741L16.944 19.5L12 16.9369L7.056 19.5L8 14.0741L4 10.2334L9.528 9.43691L12 4.5Z" fill="currentColor" stroke="none"></path></g></g></symbol><symbol id="icon-user" viewBox="0 0 24 24"><title>user</title><g class="nc-icon-wrapper"><g id="1745132242768-4894708_User" stroke="none" fill="none"><g id="1745132242768-4894708_Vector" stroke="none" fill="none"><path d="M12.0391 10.5C14.1988 10.5 15.9497 8.82107 15.9497 6.75C15.9497 4.67894 14.1988 3 12.0391 3C9.87932 3 8.12848 4.67894 8.12848 6.75C8.12848 8.82107 9.87932 10.5 12.0391 10.5Z" stroke="currentColor" stroke-linecap="round" stroke-linejoin="round" fill="none"></path><path d="M5 21V20.1869C5.01245 19.0436 5.32689 17.9219 5.91394 16.9267C6.501 15.9315 7.34151 15.0953 8.35697 14.496C9.37244 13.8968 10.5297 13.5541 11.7207 13.5C11.8269 13.4952 11.9331 13.4927 12.0391 13.4925C12.1451 13.4927 12.2513 13.4952 12.3574 13.5C13.5484 13.5541 14.7057 13.8968 15.7212 14.496C16.3051 14.8406 16.8312 15.2636 17.2845 15.75" stroke="currentColor" stroke-linecap="round" stroke-linejoin="round" fill="none"></path></g></g></g></symbol><symbol id="icon-upload" viewBox="0 0 24 24"><title>upload</title><g class="nc-icon-wrapper"><g id="1745132242767-8650110_Upload" stroke="none" fill="none"><path id="1745132242767-8650110_Vector" d="M7.80764 19.7857H5.41204C5.09435 19.7857 4.78969 19.6595 4.56506 19.4349C4.34043 19.2103 4.21423 18.9056 4.21423 18.5879V9.00551M4.21423 9.00551H19.7857M4.21423 9.00551L6.86138 4.8132C6.96381 4.63561 7.11011 4.48728 7.28628 4.38242C7.46246 4.27756 7.66259 4.21967 7.86753 4.21429H16.1324C16.3373 4.21967 16.5375 4.27756 16.7137 4.38242C16.8897 4.48728 17.0361 4.63561 17.1385 4.8132L19.7857 9.00551M19.7857 9.00551V18.5879C19.7857 18.9056 19.6594 19.2103 19.4348 19.4349C19.2102 19.6595 18.9055 19.7857 18.5879 19.7857H16.1923M9.0054 15.5934L11.9999 12.5989M11.9999 12.5989L14.9944 15.5934M11.9999 12.5989L12 19.7857M12 4.21429V9.0055" stroke="currentColor" stroke-linecap="round" stroke-linejoin="round" fill="none"></path></g></g></symbol><symbol id="icon-youtube" viewBox="0 0 24 24"><title>youtube</title><g class="nc-icon-wrapper"><path d="M10 15L15.19 12L10 9V15ZM21.56 7.17C21.69 7.64 21.78 8.27 21.84 9.07C21.91 9.87 21.94 10.56 21.94 11.16L22 12C22 14.19 21.84 15.8 21.56 16.83C21.31 17.73 20.73 18.31 19.83 18.56C19.36 18.69 18.5 18.78 17.18 18.84C15.88 18.91 14.69 18.94 13.59 18.94L12 19C7.81 19 5.2 18.84 4.17 18.56C3.27 18.31 2.69 17.73 2.44 16.83C2.31 16.36 2.22 15.73 2.16 14.93C2.09 14.13 2.06 13.44 2.06 12.84L2 12C2 9.81 2.16 8.2 2.44 7.17C2.69 6.27 3.27 5.69 4.17 5.44C4.64 5.31 5.5 5.22 6.82 5.16C8.12 5.09 9.31 5.06 10.41 5.06L12 5C16.19 5 18.8 5.16 19.83 5.44C20.73 5.69 21.31 6.27 21.56 7.17Z" fill="currentColor" stroke="none"></path></g></symbol><symbol id="icon-user-1" viewBox="0 0 24 24"><title>user 1</title><g class="nc-icon-wrapper"><g id="1745132242767-1321014_User" stroke="none" fill="none"><g id="1745132242767-1321014_Vector" stroke="none" fill="none"><path fill-rule="evenodd" clip-rule="evenodd" d="M9.11604 7.08299C9.88092 6.31812 10.9183 5.88842 12 5.88842C13.0817 5.88842 14.1191 6.31812 14.884 7.08299C15.6488 7.84787 16.0785 8.88525 16.0785 9.96695C16.0785 11.0486 15.6488 12.086 14.884 12.8509C14.1191 13.6158 13.0817 14.0455 12 14.0455C10.9183 14.0455 9.88092 13.6158 9.11604 12.8509C8.35117 12.086 7.92147 11.0486 7.92147 9.96695C7.92147 8.88525 8.35117 7.84787 9.11604 7.08299ZM12 7.26864C11.2844 7.26864 10.598 7.55292 10.092 8.05895C9.58597 8.56498 9.30169 9.25131 9.30169 9.96695C9.30169 10.6826 9.58597 11.3689 10.092 11.8749C10.598 12.381 11.2844 12.6653 12 12.6653C12.7156 12.6653 13.402 12.381 13.908 11.8749C14.414 11.3689 14.6983 10.6826 14.6983 9.96695C14.6983 9.25131 14.414 8.56498 13.908 8.05895C13.402 7.55292 12.7156 7.26864 12 7.26864Z" fill="currentColor" stroke="none"></path><path fill-rule="evenodd" clip-rule="evenodd" d="M12 16.0804C10.9559 16.0804 9.9293 16.349 9.01897 16.8603C8.10864 17.3717 7.34516 18.1087 6.80193 19.0003C6.60364 19.3258 6.17902 19.4289 5.85353 19.2307C5.52804 19.0324 5.42493 18.6077 5.62323 18.2823C6.28964 17.1884 7.22624 16.2843 8.343 15.657C9.45975 15.0297 10.7191 14.7002 12 14.7002C13.2809 14.7002 14.5402 15.0297 15.657 15.657C16.7738 16.2843 17.7104 17.1884 18.3768 18.2823C18.5751 18.6077 18.472 19.0324 18.1465 19.2307C17.821 19.4289 17.3964 19.3258 17.1981 19.0003C16.6548 18.1087 15.8914 17.3717 14.981 16.8603C14.0707 16.349 13.0441 16.0804 12 16.0804Z" fill="currentColor" stroke="none"></path><path fill-rule="evenodd" clip-rule="evenodd" d="M5.28249 5.28249C7.06408 3.50089 9.48044 2.5 12 2.5C14.5196 2.5 16.9359 3.50089 18.7175 5.28249C20.4991 7.06408 21.5 9.48044 21.5 12C21.5 14.5196 20.4991 16.9359 18.7175 18.7175C16.9359 20.4991 14.5196 21.5 12 21.5C9.48044 21.5 7.06408 20.4991 5.28249 18.7175C3.50089 16.9359 2.5 14.5196 2.5 12C2.5 9.48044 3.50089 7.06408 5.28249 5.28249ZM12 3.88022C9.8465 3.88022 7.7812 4.73569 6.25845 6.25845C4.73569 7.7812 3.88022 9.8465 3.88022 12C3.88022 14.1535 4.73569 16.2188 6.25845 17.7416C7.7812 19.2643 9.8465 20.1198 12 20.1198C14.1535 20.1198 16.2188 19.2643 17.7416 17.7416C19.2643 16.2188 20.1198 14.1535 20.1198 12C20.1198 9.8465 19.2643 7.7812 17.7416 6.25845C16.2188 4.73569 14.1535 3.88022 12 3.88022Z" fill="currentColor" stroke="none"></path></g></g></g></symbol><symbol id="icon-sort" viewBox="0 0 24 24"><title>sort</title><g class="nc-icon-wrapper"><g id="1745132242767-8522060_Sort" stroke="none" fill="none"><path id="1745132242767-8522060_Vector" d="M6 8.3087L8.37549 6.00035M8.37549 6.00035L10.7525 8.30726M8.37549 6.00035L8.37935 18M18 15.692L15.6238 17.9997M15.6238 17.9997L13.2475 15.692M15.6238 17.9997V6" stroke="currentColor" stroke-linecap="round" stroke-linejoin="round" fill="none"></path></g></g></symbol><symbol id="icon-shield-check" viewBox="0 0 24 24"><title>shield check</title><g class="nc-icon-wrapper"><g id="1745132242767-5574912_Shield Check" stroke="none" fill="none"><path id="1745132242767-5574912_Vector" d="M15.7272 8.27901L10.7633 13.8604L8.28131 11.9999M12.443 19.9176C12.1579 20.0275 11.842 20.0275 11.5569 19.9176C9.33201 19.0638 7.41857 17.5557 6.06934 15.5921C4.7201 13.6287 3.99856 11.3024 4 8.92041V5.2301C4 4.90386 4.12967 4.59097 4.36048 4.36029C4.5913 4.1296 4.90435 4 5.23077 4H18.7692C19.0956 4 19.4087 4.1296 19.6395 4.36029C19.8703 4.59097 20 4.90386 20 5.2301V8.92041C20.0014 11.3024 19.2799 13.6287 17.9307 15.5921C16.5814 17.5557 14.6679 19.0638 12.443 19.9176Z" stroke="currentColor" stroke-linecap="round" stroke-linejoin="round" fill="none"></path></g></g></symbol><symbol id="icon-share" viewBox="0 0 24 24"><title>share</title><g class="nc-icon-wrapper"><g id="1745132242767-954656_Share" stroke="none" fill="none"><path id="1745132242767-954656_Vector" d="M8.96889 13.359L15.04 16.941M15.0311 7.059L8.96889 10.641M20 5.7C20 7.19117 18.8061 8.4 17.3333 8.4C15.8606 8.4 14.6667 7.19117 14.6667 5.7C14.6667 4.20883 15.8606 3 17.3333 3C18.8061 3 20 4.20883 20 5.7ZM9.33333 12C9.33333 13.4912 8.13943 14.7 6.66667 14.7C5.19391 14.7 4 13.4912 4 12C4 10.5088 5.19391 9.3 6.66667 9.3C8.13943 9.3 9.33333 10.5088 9.33333 12ZM20 18.3C20 19.7912 18.8061 21 17.3333 21C15.8606 21 14.6667 19.7912 14.6667 18.3C14.6667 16.8088 15.8606 15.6 17.3333 15.6C18.8061 15.6 20 16.8088 20 18.3Z" stroke="currentColor" stroke-linecap="round" stroke-linejoin="round" fill="none"></path></g></g></symbol><symbol id="icon-settings" viewBox="0 0 24 24"><title>settings</title><g class="nc-icon-wrapper"><g id="1745132242767-9406315_Settings" stroke="none" fill="none"><path id="1745132242767-9406315_Vector" d="M9.62731 5.78846L10.2037 4.33692C10.3009 4.09116 10.472 3.87977 10.6944 3.73043C10.9169 3.5811 11.1804 3.50078 11.4504 3.5H12.5496C12.8196 3.50078 13.0831 3.5811 13.3056 3.73043C13.528 3.87977 13.699 4.09116 13.7962 4.33692L14.3727 5.78846L16.3297 6.88692L17.9115 6.65154C18.1749 6.61666 18.443 6.65895 18.6818 6.77305C18.9204 6.88715 19.1189 7.06788 19.252 7.29231L19.7882 8.20769C19.9256 8.43569 19.989 8.69897 19.9698 8.96278C19.9507 9.22659 19.85 9.47855 19.681 9.68539L18.7024 10.9015V13.0985L19.7078 14.3146C19.8768 14.5215 19.9775 14.7734 19.9966 15.0372C20.0158 15.301 19.9524 15.5643 19.815 15.7923L19.2788 16.7077C19.1457 16.9321 18.9472 17.1128 18.7086 17.227C18.4698 17.341 18.2017 17.3834 17.9383 17.3485L16.3565 17.1131L14.3995 18.2115L13.8231 19.6631C13.7258 19.9088 13.5548 20.1202 13.3324 20.2696C13.1099 20.4189 12.8464 20.4992 12.5764 20.5H11.4504C11.1804 20.4992 10.9169 20.4189 10.6944 20.2696C10.472 20.1202 10.3009 19.9088 10.2037 19.6631L9.62731 18.2115L7.67019 17.1131L6.08841 17.3485C5.82502 17.3834 5.55695 17.341 5.31826 17.227C5.07959 17.1128 4.88106 16.9321 4.74791 16.7077L4.21171 15.7923C4.07431 15.5643 4.01101 15.301 4.03016 15.0372C4.0493 14.7734 4.15 14.5215 4.31895 14.3146L5.29751 13.0985V10.9015L4.29214 9.68539C4.12319 9.47855 4.02249 9.22659 4.00335 8.96278C3.9842 8.69897 4.0475 8.43569 4.1849 8.20769L4.7211 7.29231C4.85425 7.06788 5.05278 6.88715 5.29145 6.77305C5.53014 6.65895 5.79821 6.61666 6.0616 6.65154L7.64338 6.88692L9.62731 5.78846ZM9.319 12C9.319 12.5173 9.47624 13.0229 9.77082 13.453C10.0654 13.8831 10.4841 14.2183 10.974 14.4163C11.4639 14.6142 12.003 14.666 12.523 14.5651C13.0431 14.4642 13.5208 14.2151 13.8957 13.8494C14.2707 13.4836 14.526 13.0176 14.6295 12.5102C14.7329 12.0029 14.6798 11.477 14.4769 10.9991C14.274 10.5212 13.9304 10.1128 13.4895 9.82539C13.0486 9.53801 12.5302 9.38462 12 9.38462C11.2889 9.38462 10.607 9.66016 10.1042 10.1506C9.60147 10.6411 9.319 11.3064 9.319 12Z" stroke="currentColor" stroke-linecap="round" stroke-linejoin="round" fill="none"></path></g></g></symbol><symbol id="icon-search" viewBox="0 0 24 24"><title>search</title><g class="nc-icon-wrapper"><g id="1745132242767-9206387_Search" stroke="none" fill="none"><g id="1745132242767-9206387_Icon" stroke="none" fill="none"><path id="1745132242767-9206387_Vector" d="M11.2252 18.4799C13.28 18.4799 15.2507 17.6636 16.7037 16.2106C18.1566 14.7577 18.9729 12.787 18.9729 10.7322C18.9729 8.67737 18.1566 6.70672 16.7037 5.25374C15.2507 3.80077 13.28 2.9845 11.2252 2.9845C9.17041 2.9845 7.19976 3.80077 5.74679 5.25374C4.29381 6.70672 3.47754 8.67737 3.47754 10.7322C3.47754 12.787 4.29381 14.7577 5.74679 16.2106C7.19976 17.6636 9.17041 18.4799 11.2252 18.4799Z" stroke="currentColor" stroke-linecap="round" stroke-linejoin="round" fill="none"></path><path id="1745132242767-9206387_Vector_2" d="M20.5225 21.0155L16.5782 17.0712" stroke="currentColor" stroke-linecap="round" stroke-linejoin="round" fill="none"></path></g></g></g></symbol><symbol id="icon-product" viewBox="0 0 24 24"><title>product</title><g class="nc-icon-wrapper"><g id="1745132242767-3366182_Product" stroke="none" fill="none"><path id="1745132242767-3366182_Vector" d="M5.23077 9.66667H18.7692M5.23077 9.66667V17.8333C5.23077 18.1427 5.36044 18.4395 5.59125 18.6583C5.82207 18.877 6.13511 19 6.46154 19H17.5385C17.8649 19 18.178 18.877 18.4087 18.6583C18.6395 18.4395 18.7692 18.1427 18.7692 17.8333V9.66667M5.23077 9.66667C4.55103 9.66667 4 9.14433 4 8.5V6.16667C4 5.52234 4.55103 5 5.23077 5H18.7692C19.449 5 20 5.52234 20 6.16667V8.5C20 9.14433 19.449 9.66667 18.7692 9.66667M10.1538 13.1667H13.8462" stroke="currentColor" stroke-linecap="round" stroke-linejoin="round" fill="none"></path></g></g></symbol><symbol id="icon-more" viewBox="0 0 24 24"><title>more</title><g class="nc-icon-wrapper"><g id="1745132242767-1232270_More" stroke="none" fill="none"><g id="1745132242767-1232270_Vector" stroke="none" fill="none"><path d="M6.14284 12.5714C5.82725 12.5714 5.57141 12.3156 5.57141 12C5.57141 11.6844 5.82725 11.4286 6.14284 11.4286" stroke="currentColor" stroke-linecap="round" stroke-linejoin="round" fill="none"></path><path d="M6.14284 12.5714C6.45843 12.5714 6.71427 12.3156 6.71427 12C6.71427 11.6844 6.45843 11.4286 6.14284 11.4286" stroke="currentColor" stroke-linecap="round" stroke-linejoin="round" fill="none"></path><path d="M12 12.5714C11.6844 12.5714 11.4286 12.3156 11.4286 12C11.4286 11.6844 11.6844 11.4286 12 11.4286" stroke="currentColor" stroke-linecap="round" stroke-linejoin="round" fill="none"></path><path d="M12 12.5714C12.3156 12.5714 12.5714 12.3156 12.5714 12C12.5714 11.6844 12.3156 11.4286 12 11.4286" stroke="currentColor" stroke-linecap="round" stroke-linejoin="round" fill="none"></path><path d="M17.8571 12.5714C17.5415 12.5714 17.2856 12.3156 17.2856 12C17.2856 11.6844 17.5415 11.4286 17.8571 11.4286" stroke="currentColor" stroke-linecap="round" stroke-linejoin="round" fill="none"></path><path d="M17.8571 12.5714C18.1727 12.5714 18.4285 12.3156 18.4285 12C18.4285 11.6844 18.1727 11.4286 17.8571 11.4286" stroke="currentColor" stroke-linecap="round" stroke-linejoin="round" fill="none"></path></g></g></g></symbol><symbol id="icon-minus" viewBox="0 0 24 24"><title>minus</title><g class="nc-icon-wrapper"><g id="1745132242766-4475102_Minus" stroke="none" fill="none"><path id="1745132242766-4475102_Vector" d="M5 12H17" stroke="currentColor" stroke-linecap="round" stroke-linejoin="round" fill="none"></path></g></g></symbol><symbol id="icon-menu" viewBox="0 0 24 24"><title>menu</title><g class="nc-icon-wrapper"><g id="1745132242766-8385938_Menu" stroke="none" fill="none"><g id="1745132242766-8385938_Lines" stroke="none" fill="none"><path id="1745132242766-8385938_Vector" d="M4.5 7H19.5" stroke="currentColor" stroke-linecap="round" stroke-linejoin="round" fill="none"></path><path id="1745132242766-8385938_Vector_2" d="M4.5 12H19.5" stroke="currentColor" stroke-linecap="round" stroke-linejoin="round" fill="none"></path><path id="1745132242766-8385938_Vector_3" d="M4.5 17H19.5" stroke="currentColor" stroke-linecap="round" stroke-linejoin="round" fill="none"></path></g></g></g></symbol><symbol id="icon-logout" viewBox="0 0 24 24"><title>logout</title><g class="nc-icon-wrapper"><g id="1745132242766-497246_Logout" stroke="none" fill="none"><path id="1745132242766-497246_Vector" d="M14.8571 16V18.2857C14.8571 18.5888 14.7367 18.8796 14.5224 19.0938C14.3081 19.3081 14.0174 19.4286 13.7143 19.4286H5.71427C5.41116 19.4286 5.12047 19.3081 4.90615 19.0938C4.69182 18.8796 4.57141 18.5888 4.57141 18.2857V5.7143C4.57141 5.41119 4.69182 5.1205 4.90615 4.90618C5.12047 4.69185 5.41116 4.57144 5.71427 4.57144H13.7143C14.0174 4.57144 14.3081 4.69185 14.5224 4.90618C14.7367 5.1205 14.8571 5.41119 14.8571 5.7143V8.00001M11.4286 12H19.4286M19.4286 12L17.1428 9.7143M19.4286 12L17.1428 14.2857" stroke="currentColor" stroke-linecap="round" stroke-linejoin="round" fill="none"></path></g></g></symbol><symbol id="icon-key" viewBox="0 0 24 24"><title>key</title><g class="nc-icon-wrapper"><g id="1745132242766-7723556_Key" stroke="none" fill="none"><g id="1745132242766-7723556_group" stroke="none" fill="none"><path id="1745132242766-7723556_Vector (Stroke)" fill-rule="evenodd" clip-rule="evenodd" d="M17.9235 3.63777C18.2025 3.35882 18.6547 3.35882 18.9337 3.63777L21.7908 6.49491C22.0698 6.77386 22.0698 7.22612 21.7908 7.50506C21.5119 7.78401 21.0596 7.78401 20.7807 7.50506L18.4286 5.153L10.5337 13.0479C10.2547 13.3269 9.80249 13.3269 9.52354 13.0479C9.24459 12.769 9.24459 12.3167 9.52354 12.0378L17.9235 3.63777Z" fill="currentColor" stroke="none"></path><path id="1745132242766-7723556_Vector_2 (Stroke)" fill-rule="evenodd" clip-rule="evenodd" d="M14.7092 6.85206C14.9882 6.57312 15.4404 6.57312 15.7194 6.85206L18.2194 9.35206C18.4983 9.63101 18.4983 10.0833 18.2194 10.3622C17.9404 10.6412 17.4882 10.6412 17.2092 10.3622L14.7092 7.86221C14.4303 7.58327 14.4303 7.13101 14.7092 6.85206Z" fill="currentColor" stroke="none"></path><path id="1745132242766-7723556_Vector_3 (Stroke)" fill-rule="evenodd" clip-rule="evenodd" d="M2 15.5714C2 12.81 4.23858 10.5714 7 10.5714C9.76142 10.5714 12 12.81 12 15.5714C12 18.3329 9.76141 20.5714 7 20.5714C4.23859 20.5714 2 18.3329 2 15.5714ZM7 12C5.02756 12 3.42857 13.599 3.42857 15.5714C3.42857 17.5439 5.02755 19.1428 7 19.1428C8.97245 19.1428 10.5714 17.5439 10.5714 15.5714C10.5714 13.599 8.97244 12 7 12Z" fill="currentColor" stroke="none"></path></g></g></g></symbol><symbol id="icon-info" viewBox="0 0 24 24"><title>info</title><g class="nc-icon-wrapper"><g id="1745132242766-9727941_Info" stroke="none" fill="none"><g id="1745132242766-9727941_Vector" stroke="none" fill="none"><path fill-rule="evenodd" clip-rule="evenodd" d="M5.63604 5.63604C7.32387 3.94821 9.61305 3 12 3C14.3869 3 16.6761 3.94821 18.364 5.63604C20.0518 7.32387 21 9.61305 21 12C21 14.3869 20.0518 16.6761 18.364 18.364C16.6761 20.0518 14.3869 21 12 21C9.61305 21 7.32387 20.0518 5.63604 18.364C3.94821 16.6761 3 14.3869 3 12C3 9.61305 3.94821 7.32387 5.63604 5.63604ZM12 4.5602C10.0268 4.5602 8.1345 5.34403 6.73927 6.73927C5.34403 8.1345 4.5602 10.0268 4.5602 12C4.5602 13.9732 5.34403 15.8655 6.73927 17.2607C8.1345 18.656 10.0268 19.4398 12 19.4398C13.9732 19.4398 15.8655 18.656 17.2607 17.2607C18.656 15.8655 19.4398 13.9732 19.4398 12C19.4398 10.0268 18.656 8.1345 17.2607 6.73927C15.8655 5.34403 13.9732 4.5602 12 4.5602Z" fill="currentColor" stroke="none"></path><path fill-rule="evenodd" clip-rule="evenodd" d="M12.7801 10.5876V16.5739H11.2199V10.5876H12.7801Z" fill="currentColor" stroke="none"></path><path fill-rule="evenodd" clip-rule="evenodd" d="M12.7134 8.2062C12.7563 8.10956 12.7801 8.00259 12.7801 7.89005C12.7801 7.45921 12.4308 7.10995 12 7.10995C11.7093 7.10995 11.4304 7.22545 11.2248 7.43103C11.0192 7.63662 10.9037 7.91546 10.9037 8.2062C10.9037 8.49694 11.0192 8.77578 11.2248 8.98137C11.4304 9.18695 11.7093 9.30245 12 9.30245C12.4308 9.30245 12.7801 8.95319 12.7801 8.52235C12.7801 8.40981 12.7563 8.30284 12.7134 8.2062Z" fill="currentColor" stroke="none"></path><path fill-rule="evenodd" clip-rule="evenodd" d="M11.2199 7.89005C11.2199 7.45921 11.5692 7.10995 12 7.10995C12.2907 7.10995 12.5696 7.22545 12.7752 7.43103C12.9808 7.63662 13.0962 7.91546 13.0962 8.2062C13.0962 8.49694 12.9808 8.77578 12.7752 8.98137C12.5696 9.18695 12.2907 9.30245 12 9.30245C11.5692 9.30245 11.2199 8.95319 11.2199 8.52235C11.2199 8.40981 11.2437 8.30284 11.2866 8.2062C11.2437 8.10956 11.2199 8.00259 11.2199 7.89005Z" fill="currentColor" stroke="none"></path></g></g></g></symbol><symbol id="icon-home" viewBox="0 0 24 24"><title>home</title><g class="nc-icon-wrapper"><g id="1745132242766-5314097_Home" stroke="none" fill="none"><g id="1745132242766-5314097_home" stroke="none" fill="none"><path id="1745132242766-5314097_Vector" d="M2.71423 13.4286L11.9999 4.14285L21.2857 13.4286" stroke="currentColor" stroke-linecap="round" stroke-linejoin="round" fill="none"></path><path id="1745132242766-5314097_Vector_2" d="M5.57141 10.5714V19.8571H18.4286V10.5714" stroke="currentColor" stroke-linecap="round" stroke-linejoin="round" fill="none"></path></g></g></g></symbol><symbol id="icon-dashboard" viewBox="0 0 24 24"><title>dashboard</title><g class="nc-icon-wrapper"><g id="1745132242766-9443344_Dashboard" stroke="none" fill="none"><g id="1745132242766-9443344_Vector" stroke="none" fill="none"><path d="M18.9231 11.4231H14.3077C13.9891 11.4231 13.7308 11.6814 13.7308 12V18.9231C13.7308 19.2417 13.9891 19.5 14.3077 19.5H18.9231C19.2417 19.5 19.5 19.2417 19.5 18.9231V12C19.5 11.6814 19.2417 11.4231 18.9231 11.4231Z" stroke="currentColor" stroke-linecap="round" stroke-linejoin="round" fill="none"></path><path d="M18.9231 4.5H14.3077C13.9891 4.5 13.7308 4.7583 13.7308 5.07692V7.39615C13.7308 7.71478 13.9891 7.97308 14.3077 7.97308H18.9231C19.2417 7.97308 19.5 7.71478 19.5 7.39615V5.07692C19.5 4.7583 19.2417 4.5 18.9231 4.5Z" stroke="currentColor" stroke-linecap="round" stroke-linejoin="round" fill="none"></path><path d="M9.69231 4.5H5.07692C4.7583 4.5 4.5 4.7583 4.5 5.07692V12C4.5 12.3186 4.7583 12.5769 5.07692 12.5769H9.69231C10.0109 12.5769 10.2692 12.3186 10.2692 12V5.07692C10.2692 4.7583 10.0109 4.5 9.69231 4.5Z" stroke="currentColor" stroke-linecap="round" stroke-linejoin="round" fill="none"></path><path d="M9.69231 16.0269H5.07692C4.7583 16.0269 4.5 16.2852 4.5 16.6038V18.9231C4.5 19.2417 4.7583 19.5 5.07692 19.5H9.69231C10.0109 19.5 10.2692 19.2417 10.2692 18.9231V16.6038C10.2692 16.2852 10.0109 16.0269 9.69231 16.0269Z" stroke="currentColor" stroke-linecap="round" stroke-linejoin="round" fill="none"></path></g></g></g></symbol><symbol id="icon-heart" viewBox="0 0 24 24"><title>heart</title><g class="nc-icon-wrapper"><g id="1745132242766-4660751_Heart" stroke="none" fill="none"><path id="1745132242766-4660751_Vector" d="M12.0048 19L4.791 12.5513C0.870448 8.68258 6.63333 1.25337 12.0048 7.26384C17.3763 1.25337 23.1141 8.70729 19.22 12.5513L12.0048 19Z" stroke="currentColor" stroke-linecap="round" stroke-linejoin="round" fill="none"></path></g></g></symbol><symbol id="icon-delivery" viewBox="0 0 24 24"><title>delivery</title><g class="nc-icon-wrapper"><g id="1745132242766-8996060_Delivery" stroke="none" fill="none"><path id="1745132242766-8996060_Vector" d="M15.0853 15.844V6.39276C15.0853 6.02338 14.9347 5.66912 14.6667 5.40793C14.3987 5.14674 14.0352 5 13.6562 5H4.42903C4.05002 5 3.68655 5.14674 3.41855 5.40793C3.15056 5.66912 3 6.02338 3 6.39276V15.6212C3 15.9906 3.15056 16.3448 3.41855 16.606C3.68655 16.8672 4.05002 17.0139 4.42903 17.0139H5.50079M21 11.5919H15.0867M19.0765 16.7535H19.5695C19.9485 16.7535 20.312 16.6067 20.58 16.3456C20.848 16.0844 20.9986 15.7301 20.9986 15.3607V11.1825L19.0079 7.20891C18.8903 6.97493 18.7077 6.77781 18.4808 6.63993C18.254 6.50206 17.992 6.42897 17.7247 6.42897H15.3425M14.2536 17.0139H10.0565M5.57225 17.0557C5.57225 17.5714 5.78242 18.0659 6.15654 18.4305C6.53066 18.7952 7.03808 19 7.56716 19C8.09625 19 8.60366 18.7952 8.97778 18.4305C9.3519 18.0659 9.56208 17.5714 9.56208 17.0557C9.56208 16.5401 9.3519 16.0455 8.97778 15.6809C8.60366 15.3163 8.09625 15.1114 7.56716 15.1114C7.03808 15.1114 6.53066 15.3163 6.15654 15.6809C5.78242 16.0455 5.57225 16.5401 5.57225 17.0557ZM14.628 17.0557C14.628 17.5714 14.8382 18.0659 15.2123 18.4305C15.5864 18.7952 16.0938 19 16.6229 19C17.152 19 17.6594 18.7952 18.0335 18.4305C18.4076 18.0659 18.6178 17.5714 18.6178 17.0557C18.6178 16.5401 18.4076 16.0455 18.0335 15.6809C17.6594 15.3163 17.152 15.1114 16.6229 15.1114C16.0938 15.1114 15.5864 15.3163 15.2123 15.6809C14.8382 16.0455 14.628 16.5401 14.628 17.0557Z" stroke="currentColor" stroke-linecap="round" stroke-linejoin="round" fill="none"></path></g></g></symbol><symbol id="icon-empty-star" viewBox="0 0 24 24"><title>empty star</title><g class="nc-icon-wrapper"><g id="1745132242766-404453_Empty Star" stroke="none" fill="none"><path id="1745132242766-404453_Vector" d="M12 5.5L14.163 9.77865L19 10.469L15.5 13.7976L16.326 18.5L12 16.2787L7.674 18.5L8.5 13.7976L5 10.469L9.837 9.77865L12 5.5Z" stroke="currentColor" stroke-linecap="round" stroke-linejoin="round" fill="none"></path></g></g></symbol><symbol id="icon-copy" viewBox="0 0 24 24"><title>copy</title><g class="nc-icon-wrapper"><g id="1745132242766-43822_Copy" stroke="none" fill="none"><g id="1745132242766-43822_copy-paste--clipboard-copy-cut-paste" stroke="none" fill="none"><path id="1745132242766-43822_Vector" d="M14.1428 7V5.57142C14.1428 5.19254 13.9923 4.82918 13.7244 4.56127C13.4565 4.29337 13.0931 4.14285 12.7142 4.14285H11.2856" stroke="currentColor" stroke-linecap="round" stroke-linejoin="round" fill="none"></path><path id="1745132242766-43822_Vector_2" d="M7.71423 17H4.1428C3.76392 17 3.40056 16.8494 3.13265 16.5816C2.86474 16.3137 2.71423 15.9503 2.71423 15.5714V5.57142C2.71423 5.19254 2.86474 4.82918 3.13265 4.56127C3.40056 4.29337 3.76392 4.14285 4.1428 4.14285H5.57138" stroke="currentColor" stroke-linecap="round" stroke-linejoin="round" fill="none"></path><path id="1745132242766-43822_Vector_3" d="M19.8571 9.85713H12.7142C11.9252 9.85713 11.2856 10.4967 11.2856 11.2857V19.8571C11.2856 20.6461 11.9252 21.2857 12.7142 21.2857H19.8571C20.6461 21.2857 21.2856 20.6461 21.2856 19.8571V11.2857C21.2856 10.4967 20.6461 9.85713 19.8571 9.85713Z" stroke="currentColor" stroke-linecap="round" stroke-linejoin="round" fill="none"></path><path id="1745132242766-43822_Vector_4" d="M11.6428 2.71428H5.21423L5.79995 5.02856C5.83563 5.18346 5.92296 5.32161 6.04759 5.42026C6.17222 5.51892 6.32671 5.57224 6.48566 5.57142H10.3714C10.5303 5.57224 10.6848 5.51892 10.8094 5.42026C10.9341 5.32161 11.0214 5.18346 11.0571 5.02856L11.6428 2.71428Z" stroke="currentColor" stroke-linecap="round" stroke-linejoin="round" fill="none"></path><path id="1745132242766-43822_Vector_5" d="M14.1428 14.1429H18.4285" stroke="currentColor" stroke-linecap="round" stroke-linejoin="round" fill="none"></path><path id="1745132242766-43822_Vector_6" d="M14.1428 17H18.4285" stroke="currentColor" stroke-linecap="round" stroke-linejoin="round" fill="none"></path></g></g></g></symbol><symbol id="icon-chevron-right" viewBox="0 0 24 24"><title>chevron right</title><g class="nc-icon-wrapper"><g id="1745132242765-1263755_Chevron Right" stroke="none" fill="none"><path id="1745132242765-1263755_Vector" fill-rule="evenodd" clip-rule="evenodd" d="M14.8117 11.4673C15.0609 11.7443 15.063 12.1958 14.8163 12.4757L9.94859 18L9.04604 16.9967L13.4672 11.9793L9 7.01366L9.89321 6L14.8117 11.4673Z" fill="currentColor" stroke="none"></path></g></g></symbol><symbol id="icon-chevron-left" viewBox="0 0 24 24"><title>chevron left</title><g class="nc-icon-wrapper"><g id="1745132242765-6016656_Chevron Left" stroke="none" fill="none"><path id="1745132242765-6016656_Vector" fill-rule="evenodd" clip-rule="evenodd" d="M9.18832 12.5327C8.93905 12.2557 8.93697 11.8042 9.18367 11.5243L14.0514 6L14.954 7.00331L10.5328 12.0207L15 16.9863L14.1068 18L9.18832 12.5327Z" fill="currentColor" stroke="none"></path></g></g></symbol><symbol id="icon-chevron-down" viewBox="0 0 24 24"><title>chevron down</title><g class="nc-icon-wrapper"><g id="1745132242765-1989295_Chevron Down" stroke="none" fill="none"><path id="1745132242765-1989295_Vector" fill-rule="evenodd" clip-rule="evenodd" d="M12.5327 14.8117C12.2557 15.061 11.8042 15.063 11.5243 14.8163L6 9.94859L7.00331 9.04604L12.0207 13.4672L16.9863 9L18 9.89321L12.5327 14.8117Z" fill="currentColor" stroke="none"></path></g></g></symbol><symbol id="icon-check" viewBox="0 0 24 24"><title>check</title><g class="nc-icon-wrapper"><g id="1745132242765-8840140_Check" stroke="none" fill="none"><path id="1745132242765-8840140_Vector" d="M21 6L9.3125 18L4 12.5455" stroke="currentColor" stroke-linecap="round" stroke-linejoin="round" fill="none"></path></g></g></symbol><symbol id="icon-cart" viewBox="0 0 24 24"><title>cart</title><g class="nc-icon-wrapper"><g id="1745132242765-8138602_Cart" stroke="none" fill="none"><path id="1745132242765-8138602_Vector" d="M3 3H6.38321L7.58853 14.9769C7.63862 15.3071 7.80643 15.608 8.06102 15.8243C8.31561 16.0406 8.63984 16.1576 8.97395 16.1538H17.7021C18.0042 16.1696 18.3032 16.0861 18.5534 15.9161C18.8035 15.7461 18.9912 15.4989 19.0875 15.2123L20.9302 9.67385C20.999 9.46564 21.0173 9.24406 20.9836 9.02739C20.9498 8.81072 20.865 8.60517 20.7362 8.42769C20.6021 8.23894 20.4227 8.08681 20.2146 7.98522C20.0065 7.88362 19.7761 7.83581 19.5447 7.84615H6.8681M11.5619 10.6154V13.3846M15.7182 10.6154V13.3846M17.4666 21C17.2829 21 17.1067 20.9271 16.9768 20.7972C16.8469 20.6674 16.7739 20.4913 16.7739 20.3077C16.7739 20.1241 16.8469 19.948 16.9768 19.8182C17.1067 19.6883 17.2829 19.6154 17.4666 19.6154C17.6503 19.6154 17.8265 19.6883 17.9564 19.8182C18.0863 19.948 18.1593 20.1241 18.1593 20.3077C18.1593 20.4913 18.0863 20.6674 17.9564 20.7972C17.8265 20.9271 17.6503 21 17.4666 21ZM8.46134 21C8.27762 21 8.10143 20.9271 7.97152 20.7972C7.84161 20.6674 7.76863 20.4913 7.76863 20.3077C7.76863 20.1241 7.84161 19.948 7.97152 19.8182C8.10143 19.6883 8.27762 19.6154 8.46134 19.6154C8.64506 19.6154 8.82126 19.6883 8.95116 19.8182C9.08107 19.948 9.15406 20.1241 9.15406 20.3077C9.15406 20.4913 9.08107 20.6674 8.95116 20.7972C8.82126 20.9271 8.64506 21 8.46134 21Z" stroke="currentColor" stroke-linecap="round" stroke-linejoin="round" fill="none"></path></g></g></symbol><symbol id="icon-arrow-left" viewBox="0 0 24 24"><title>arrow left</title><g class="nc-icon-wrapper"><g id="1745132242765-2867739_Arrow Left" stroke="none" fill="none"><g id="1745132242765-2867739_Arrow Left_2" stroke="none" fill="none"><g id="1745132242765-2867739_Vector" stroke="none" fill="none"><path fill-rule="evenodd" clip-rule="evenodd" d="M5.71037 12.5042C5.42988 12.2257 5.42988 11.7743 5.71037 11.4958L11.2459 6L12.2616 7.00845L7.23396 12L12.2616 16.9916L11.2459 18L5.71037 12.5042Z" fill="currentColor" stroke="none"></path><path fill-rule="evenodd" clip-rule="evenodd" d="M6.00276 11.2869H18.5V12.7131H6.00276V11.2869Z" fill="currentColor" stroke="none"></path></g></g></g></g></symbol><symbol id="icon-add" viewBox="0 0 24 24"><title>add</title><g class="nc-icon-wrapper"><g id="1745132242765-3477021_Add" stroke="none" fill="none"><path id="1745132242765-3477021_Vector" d="M12 6V18" stroke="currentColor" stroke-linecap="round" stroke-linejoin="round" fill="none"></path><path id="1745132242765-3477021_Vector_2" d="M6 12H18" stroke="currentColor" stroke-linecap="round" stroke-linejoin="round" fill="none"></path></g></g></symbol><symbol id="icon-arrow-up" viewBox="0 0 24 24"><title>arrow up</title><g class="nc-icon-wrapper"><g id="1745132242765-2914587_Arrow up" stroke="none" fill="none"><g id="1745132242765-2914587_Vector" stroke="none" fill="none"><path fill-rule="evenodd" clip-rule="evenodd" d="M11.4673 5.71298C11.7443 5.43107 12.1958 5.42872 12.4757 5.70773L18 11.2129L16.9967 12.2336L11.9794 7.23349L7.01367 12.2857L6 11.2755L11.4673 5.71298Z" fill="currentColor" stroke="none"></path><path fill-rule="evenodd" clip-rule="evenodd" d="M12.6861 5.99896L12.7504 18.4926L11.3242 18.5L11.2599 6.0064L12.6861 5.99896Z" fill="currentColor" stroke="none"></path></g></g></g></symbol><symbol id="icon-arrow-right" viewBox="0 0 24 24"><title>arrow right</title><g class="nc-icon-wrapper"><g id="1745132242765-3554755_Arrow Right" stroke="none" fill="none"><g id="1745132242765-3554755_Vector" stroke="none" fill="none"><path fill-rule="evenodd" clip-rule="evenodd" d="M18.2896 11.4958C18.5701 11.7743 18.5701 12.2257 18.2896 12.5042L12.7541 18L11.7384 16.9916L16.766 12L11.7384 7.00845L12.7541 6L18.2896 11.4958Z" fill="currentColor" stroke="none"></path><path fill-rule="evenodd" clip-rule="evenodd" d="M17.9972 12.7131H5.5V11.2869H17.9972V12.7131Z" fill="currentColor" stroke="none"></path></g></g></g></symbol><symbol id="icon-add-to-cart" viewBox="0 0 24 24"><title>add to cart</title><g class="nc-icon-wrapper"><g id="1745132242765-7066770_Add to cart" stroke="none" fill="none"><g id="1745132242765-7066770_Shopping Cart Add" clip-path="url(#1745132242765-7066770_clip0_1005_421)" stroke="none" fill="none"><g id="1745132242765-7066770_shopping-cart-add--shopping-cart-checkout-add-plus-new" stroke="none" fill="none"><path id="1745132242765-7066770_Vector" d="M17.3553 20.3571C17.1754 20.3571 17.0028 20.2894 16.8755 20.1688C16.7482 20.0483 16.6768 19.8848 16.6768 19.7143C16.6768 19.5438 16.7482 19.3803 16.8755 19.2597C17.0028 19.1391 17.1754 19.0714 17.3553 19.0714C17.5353 19.0714 17.7079 19.1391 17.8352 19.2597C17.9624 19.3803 18.0339 19.5438 18.0339 19.7143C18.0339 19.8848 17.9624 20.0483 17.8352 20.1688C17.7079 20.2894 17.5353 20.3571 17.3553 20.3571Z" stroke="currentColor" stroke-linecap="round" stroke-linejoin="round" fill="none"></path><path id="1745132242765-7066770_Vector_2" d="M8.53392 20.3571C8.35395 20.3571 8.18135 20.2894 8.0541 20.1688C7.92684 20.0483 7.85535 19.8848 7.85535 19.7143C7.85535 19.5438 7.92684 19.3803 8.0541 19.2597C8.18135 19.1391 8.35395 19.0714 8.53392 19.0714C8.71389 19.0714 8.88648 19.1391 9.01374 19.2597C9.141 19.3803 9.21249 19.5438 9.21249 19.7143C9.21249 19.8848 9.141 20.0483 9.01374 20.1688C8.88648 20.2894 8.71389 20.3571 8.53392 20.3571Z" stroke="currentColor" stroke-linecap="round" stroke-linejoin="round" fill="none"></path><path id="1745132242765-7066770_Vector_3" d="M15.5341 11.3571H11.4626" stroke="currentColor" stroke-linecap="round" stroke-linejoin="round" fill="none"></path><path id="1745132242765-7066770_Vector_4" d="M13.4983 9.42856V13.2857" stroke="currentColor" stroke-linecap="round" stroke-linejoin="round" fill="none"></path><path id="1745132242765-7066770_Vector 2498" d="M3.17859 3.64285H6.57145L6.92837 6.85714M6.92837 6.85714L7.80102 14.7064C7.83621 15.0222 7.99349 15.3144 8.24255 15.5269C8.49162 15.7394 8.81486 15.857 9.15002 15.8571H17.7272C18.0297 15.8571 18.3236 15.7613 18.5621 15.585C18.8006 15.4087 18.9701 15.1619 19.0436 14.8839L20.74 8.45528C20.7901 8.2657 20.794 8.06779 20.7513 7.87659C20.7086 7.6854 20.6204 7.50594 20.4935 7.35186C20.3666 7.19779 20.2042 7.07315 20.0188 6.98743C19.8335 6.9017 19.6299 6.85714 19.4236 6.85714H6.92837Z" stroke="currentColor" stroke-linecap="round" stroke-linejoin="round" fill="none"></path></g></g></g><defs stroke="none" fill="none"><clipPath id="1745132242765-7066770_clip0_1005_421" stroke="none" fill="none"><path fill="currentColor" transform="translate(2.5 3)" d="M0 0H19V18H0z" stroke="none"></path></clipPath></defs></g></symbol><symbol id="icon-pinterest" viewBox="0 0 24 24"><title>pinterest</title><g class="nc-icon-wrapper"><path d="M12.2678 2C6.87057 2 4 5.51248 4 9.34245C4 11.1191 4.97743 13.3341 6.54229 14.0366C6.77925 14.1449 6.90842 14.0991 6.9619 13.8749C7.00797 13.7058 7.21366 12.8866 7.31321 12.4999C7.33095 12.4397 7.33261 12.3759 7.31801 12.3148C7.30341 12.2538 7.27308 12.1977 7.23011 12.1524C6.71014 11.5424 6.29794 10.4316 6.29794 9.38912C6.29794 6.71747 8.38937 4.12415 11.9478 4.12415C15.0248 4.12415 17.178 6.15414 17.178 9.05745C17.178 12.3391 15.4675 14.6091 13.2461 14.6091C12.0169 14.6091 11.1011 13.6291 11.3916 12.4174C11.7421 10.9733 12.4299 9.41995 12.4299 8.37912C12.4299 7.4458 11.9107 6.67247 10.8502 6.67247C9.59798 6.67247 8.58271 7.93079 8.58271 9.62161C8.58271 10.6958 8.95706 11.4208 8.95706 11.4208L7.48846 17.4491C7.0993 19.0557 7.54111 21.6574 7.57896 21.8807C7.60282 22.0049 7.73939 22.0432 7.81591 21.9424C7.93768 21.7799 9.43426 19.6107 9.85386 18.0432C10.0069 17.4716 10.633 15.1557 10.633 15.1557C11.0452 15.9116 12.2357 16.5457 13.5036 16.5457C17.2751 16.5457 20 13.1791 20 9.00162C19.986 4.99665 16.6111 2 12.2678 2Z" fill="currentColor" stroke="none"></path></g></symbol><symbol id="icon-whatsapp" viewBox="0 0 24 24"><title>whatsapp</title><g class="nc-icon-wrapper"><g clip-path="url(#1745132242764-3274434_clip0_3082_2346)" stroke="none" fill="none"><path d="M7.48244 8.7675C7.65661 8.215 8.13077 7.55333 8.47411 7.38417C8.62661 7.30917 8.73994 7.2925 9.10994 7.2925C9.54494 7.2925 9.56661 7.29667 9.67994 7.40917C9.75327 7.48833 9.95327 7.91417 10.2408 8.6025C10.4841 9.19417 10.6849 9.69833 10.6849 9.725C10.6849 9.84667 10.4408 10.2333 10.1624 10.56C9.97077 10.7825 9.85827 10.9517 9.85827 11.0125C9.85827 11.0692 9.99744 11.33 10.1716 11.5875C10.5933 12.2183 11.3716 13.0008 11.9774 13.4017C12.4508 13.715 13.2958 14.1242 13.4649 14.1242C13.5916 14.1242 13.8224 13.8975 14.2916 13.3058C14.4833 13.0667 14.6533 12.8933 14.7183 12.88C14.7749 12.8625 14.9141 12.8842 15.0266 12.9275C15.3533 13.0542 17.0024 13.8583 17.0899 13.9367C17.2591 14.0933 17.1208 14.99 16.8674 15.355C16.4808 15.9217 15.3758 16.4042 14.6483 16.33C14.1183 16.2733 12.8649 15.86 12.0508 15.4725C11.0066 14.9725 9.90577 14.0583 9.01411 12.9408C8.50494 12.305 7.99161 11.5308 7.76994 11.0692C7.46994 10.4433 7.36077 9.96 7.39077 9.4025C7.40411 9.16333 7.44744 8.87667 7.48244 8.7675Z" fill="currentColor" stroke="none"></path><path fill-rule="evenodd" clip-rule="evenodd" d="M2.50513 9.91657C3.31847 5.7424 6.6468 2.63323 10.9243 2.0499C11.5118 1.96657 13.161 1.99323 13.731 2.08823C14.3268 2.19323 15.1143 2.3974 15.5976 2.5799C18.791 3.76823 21.1501 6.51323 21.8193 9.81573C22.111 11.2566 22.046 12.9449 21.6501 14.3632C20.706 17.7216 17.9643 20.3674 14.5576 21.2116C12.3385 21.7599 10.006 21.5199 7.90513 20.5366L7.39097 20.2932L4.70263 21.1507C3.22763 21.6207 2.00847 21.9949 2.00013 21.9857C1.9918 21.9774 2.37513 20.8066 2.85763 19.3924L3.73263 16.8124L3.3793 16.1124C2.40013 14.1407 2.10013 12.0082 2.5043 9.9149L2.50513 9.91657ZM20.1485 9.57657C19.2918 6.44323 16.5676 4.0549 13.361 3.6199C11.6118 3.3849 9.96263 3.65073 8.4443 4.41657C4.76347 6.27823 3.0093 10.5341 4.33597 14.3807C4.50597 14.8724 4.96263 15.7991 5.24597 16.2249L5.4718 16.5649L4.96763 18.0441C4.79237 18.5465 4.62402 19.0512 4.46263 19.5582C4.46263 19.5799 5.16263 19.3716 6.01597 19.1016C6.54208 18.9307 7.06988 18.7652 7.5993 18.6049C7.61763 18.6049 7.7868 18.6966 7.9743 18.8049C9.99763 20.0107 12.521 20.2716 14.7968 19.5149C16.1089 19.0784 17.2906 18.32 18.2339 17.3089C19.1773 16.2979 19.8521 15.0665 20.1968 13.7274C20.531 12.3621 20.5144 10.9345 20.1485 9.5774V9.57657Z" fill="currentColor" stroke="none"></path></g><defs stroke="none" fill="none"><clipPath id="1745132242764-3274434_clip0_3082_2346" stroke="none" fill="none"><path fill="currentColor" transform="translate(2 2)" d="M0 0H20V20H0z" stroke="none"></path></clipPath></defs></g></symbol><symbol id="icon-twitter" viewBox="0 0 24 24"><title>twitter</title><g class="nc-icon-wrapper"><path d="M4.31965 4L10.8923 13.2724L4 21H5.46911L11.5433 14.1899L16.3705 21H21L14.1222 11.2977L20.6316 4H19.1634L13.472 10.3802L8.94912 4H4.31965Z" fill="currentColor" stroke="none"></path></g></symbol><symbol id="icon-telegram" viewBox="0 0 24 24"><title>telegram</title><g class="nc-icon-wrapper"><path fill-rule="evenodd" clip-rule="evenodd" d="M3.37499 11.635C8.74332 9.29583 12.3233 7.75417 14.115 7.00917C19.2292 4.88167 20.2917 4.5125 20.985 4.5C21.1367 4.49667 21.4775 4.53417 21.6983 4.71333C21.8842 4.865 21.9358 5.06917 21.96 5.2125C21.985 5.35583 22.015 5.68167 21.9908 5.9375C21.7142 8.84917 20.515 15.9158 19.905 19.1775C19.6467 20.5575 19.1383 21.02 18.6467 21.0658C17.5767 21.1642 16.7642 20.3592 15.7283 19.68C14.1075 18.6175 13.1925 17.9558 11.6192 16.9192C9.80082 15.7208 10.9792 15.0625 12.0158 13.9858C12.2867 13.7042 16.9992 9.41833 17.09 9.02917C17.1017 8.98083 17.1117 8.8 17.0042 8.70417C16.8958 8.60833 16.7375 8.64083 16.6233 8.66667C16.46 8.70417 13.8708 10.4158 8.85499 13.8017C8.11999 14.3058 7.45415 14.5517 6.85749 14.5392C6.19999 14.525 4.93499 14.1675 3.99499 13.8617C2.84166 13.4867 1.92499 13.2883 2.00499 12.6517C2.04666 12.32 2.50332 11.9808 3.37499 11.635Z" fill="currentColor" stroke="none"></path></g></symbol><symbol id="icon-facebook" viewBox="0 0 24 24"><title>facebook</title><g class="nc-icon-wrapper"><path d="M16.3454 13.1651L16.8636 9.57337H13.6212V7.24169C13.6212 6.25835 14.0743 5.30085 15.5262 5.30085H17V2.2425C17 2.2425 15.6634 2 14.3848 2C11.7139 2 9.9688 3.72001 9.9688 6.83502V9.57254H7V13.1651H9.96801V21.8484C11.1783 22.0505 12.4109 22.0505 13.6212 21.8484V13.1651H16.3454Z" fill="currentColor" stroke="none"></path></g></symbol></svg>